<mxfile host="app.diagrams.net" agent="Mozilla/5.0 (X11; Linux x86_64; rv:133.0) Gecko/20100101 Firefox/133.0" version="26.0.2">
  <diagram name="Network Topology" id="rOJ1mfHMecBhxY5AiDdL">
    <mxGraphModel dx="989" dy="545" grid="1" gridSize="10" guides="1" tooltips="1" connect="1" arrows="1" fold="1" page="1" pageScale="1" pageWidth="827" pageHeight="1169" math="0" shadow="0">
      <root>
        <mxCell id="0" />
        <mxCell id="1" parent="0" />
        <mxCell id="6YXqLMRNQXKRHtGt1C41-1" value="172.30.2.1" style="text;html=1;" parent="1" vertex="1">
          <mxGeometry x="150" y="160" width="60" height="30" as="geometry" />
        </mxCell>
        <mxCell id="6YXqLMRNQXKRHtGt1C41-2" value="" style="line;strokeWidth=2;" parent="1" edge="1">
          <mxGeometry width="750" height="30" relative="1" as="geometry" />
        </mxCell>
        <mxCell id="6YXqLMRNQXKRHtGt1C41-52" style="edgeStyle=orthogonalEdgeStyle;rounded=0;orthogonalLoop=1;jettySize=auto;html=1;exitX=0.25;exitY=0;exitDx=0;exitDy=0;entryX=0;entryY=0.25;entryDx=0;entryDy=0;" parent="1" source="6YXqLMRNQXKRHtGt1C41-3" target="6YXqLMRNQXKRHtGt1C41-39" edge="1">
          <mxGeometry relative="1" as="geometry">
            <mxPoint x="119" y="100" as="targetPoint" />
          </mxGeometry>
        </mxCell>
        <mxCell id="6YXqLMRNQXKRHtGt1C41-53" style="edgeStyle=orthogonalEdgeStyle;rounded=0;orthogonalLoop=1;jettySize=auto;html=1;exitX=0.5;exitY=0;exitDx=0;exitDy=0;entryX=0;entryY=0.25;entryDx=0;entryDy=0;" parent="1" source="6YXqLMRNQXKRHtGt1C41-3" target="6YXqLMRNQXKRHtGt1C41-38" edge="1">
          <mxGeometry relative="1" as="geometry">
            <mxPoint x="148" y="200" as="targetPoint" />
          </mxGeometry>
        </mxCell>
        <mxCell id="6YXqLMRNQXKRHtGt1C41-54" style="edgeStyle=orthogonalEdgeStyle;rounded=0;orthogonalLoop=1;jettySize=auto;html=1;exitX=0.75;exitY=0;exitDx=0;exitDy=0;entryX=0;entryY=0;entryDx=0;entryDy=0;" parent="1" source="6YXqLMRNQXKRHtGt1C41-3" target="6YXqLMRNQXKRHtGt1C41-37" edge="1">
          <mxGeometry relative="1" as="geometry">
            <mxPoint x="176.25581395348843" y="280" as="targetPoint" />
            <Array as="points">
              <mxPoint x="176" y="290" />
              <mxPoint x="176" y="290" />
              <mxPoint x="176" y="280" />
            </Array>
          </mxGeometry>
        </mxCell>
        <mxCell id="6YXqLMRNQXKRHtGt1C41-3" value="&lt;div&gt;&lt;br&gt;&lt;/div&gt;&lt;div&gt;companyrouter&lt;/div&gt;&lt;div&gt;192.168.62.253&lt;br&gt;&lt;/div&gt;&lt;div&gt;&lt;br&gt;&lt;/div&gt;" style="rounded=0;whiteSpace=wrap;html=1;" parent="1" vertex="1">
          <mxGeometry x="90" y="310" width="115" height="30" as="geometry" />
        </mxCell>
        <mxCell id="6YXqLMRNQXKRHtGt1C41-4" value="dns&lt;br&gt;172.30.1.4" style="rounded=0;whiteSpace=wrap;html=1;" parent="1" vertex="1">
          <mxGeometry x="230" y="320" width="70" height="30" as="geometry" />
        </mxCell>
        <mxCell id="6YXqLMRNQXKRHtGt1C41-5" value="web&lt;br&gt;172.30.2.10" style="rounded=0;whiteSpace=wrap;html=1;" parent="1" vertex="1">
          <mxGeometry x="300" y="230" width="80" height="30" as="geometry" />
        </mxCell>
        <mxCell id="6YXqLMRNQXKRHtGt1C41-6" value="database&lt;br&gt;172.30.1.15" style="rounded=0;whiteSpace=wrap;html=1;" parent="1" vertex="1">
          <mxGeometry x="310" y="320" width="80" height="30" as="geometry" />
        </mxCell>
        <mxCell id="6YXqLMRNQXKRHtGt1C41-7" value="fake_internet&#xa;192.168.62.0/24" style="text;html=1;" parent="1" vertex="1">
          <mxGeometry y="360" width="80" height="30" as="geometry" />
        </mxCell>
        <mxCell id="6YXqLMRNQXKRHtGt1C41-8" value="&lt;div&gt;192.168.62.254&lt;/div&gt;&lt;div&gt;isprouter&lt;/div&gt;&lt;div&gt;10.0.2.15&lt;br&gt;&lt;/div&gt;" style="rounded=0;whiteSpace=wrap;html=1;" parent="1" vertex="1">
          <mxGeometry x="100" y="420" width="110" height="40" as="geometry" />
        </mxCell>
        <mxCell id="6YXqLMRNQXKRHtGt1C41-9" value="your_laptop&#xa;DHCP" style="rounded=0;whiteSpace=wrap;html=1;" parent="1" vertex="1">
          <mxGeometry x="275" y="420" width="100" height="30" as="geometry" />
        </mxCell>
        <mxCell id="6YXqLMRNQXKRHtGt1C41-10" value="clients 172.30.3.0/24" style="text;html=1;" parent="1" vertex="1">
          <mxGeometry x="470" y="110" width="180" height="30" as="geometry" />
        </mxCell>
        <mxCell id="6YXqLMRNQXKRHtGt1C41-20" style="edgeStyle=orthogonalEdgeStyle;rounded=0;orthogonalLoop=1;jettySize=auto;html=1;exitX=0.5;exitY=1;exitDx=0;exitDy=0;entryX=0.5;entryY=0;entryDx=0;entryDy=0;" parent="1" source="6YXqLMRNQXKRHtGt1C41-11" target="6YXqLMRNQXKRHtGt1C41-16" edge="1">
          <mxGeometry relative="1" as="geometry" />
        </mxCell>
        <mxCell id="6YXqLMRNQXKRHtGt1C41-11" value="&lt;div&gt;192.168.62.42&lt;/div&gt;&lt;div&gt;homerouter&lt;/div&gt;&lt;div&gt;172.10.10.254&lt;/div&gt;" style="rounded=0;whiteSpace=wrap;html=1;" parent="1" vertex="1">
          <mxGeometry x="460" y="410" width="130" height="40" as="geometry" />
        </mxCell>
        <mxCell id="6YXqLMRNQXKRHtGt1C41-12" value="virtualbox_nat&#xa;10.0.2.0/24" style="text;html=1;" parent="1" vertex="1">
          <mxGeometry x="10" y="540" width="80" height="30" as="geometry" />
        </mxCell>
        <mxCell id="6YXqLMRNQXKRHtGt1C41-13" value="virtualbox_nat_gateway&#xa;10.0.2.2" style="rounded=0;whiteSpace=wrap;html=1;" parent="1" vertex="1">
          <mxGeometry x="90" y="580" width="150" height="30" as="geometry" />
        </mxCell>
        <mxCell id="6YXqLMRNQXKRHtGt1C41-22" style="edgeStyle=orthogonalEdgeStyle;rounded=0;orthogonalLoop=1;jettySize=auto;html=1;exitX=0.5;exitY=0;exitDx=0;exitDy=0;entryX=0.75;entryY=1;entryDx=0;entryDy=0;" parent="1" source="6YXqLMRNQXKRHtGt1C41-14" target="6YXqLMRNQXKRHtGt1C41-18" edge="1">
          <mxGeometry relative="1" as="geometry" />
        </mxCell>
        <mxCell id="6YXqLMRNQXKRHtGt1C41-14" value="virtualbox_nat_dns&#xa;10.0.2.3" style="rounded=0;whiteSpace=wrap;html=1;" parent="1" vertex="1">
          <mxGeometry x="339" y="585" width="150" height="30" as="geometry" />
        </mxCell>
        <mxCell id="6YXqLMRNQXKRHtGt1C41-24" style="edgeStyle=orthogonalEdgeStyle;rounded=0;orthogonalLoop=1;jettySize=auto;html=1;exitX=0.5;exitY=0;exitDx=0;exitDy=0;entryX=0.5;entryY=1;entryDx=0;entryDy=0;" parent="1" source="6YXqLMRNQXKRHtGt1C41-15" target="6YXqLMRNQXKRHtGt1C41-13" edge="1">
          <mxGeometry relative="1" as="geometry" />
        </mxCell>
        <mxCell id="6YXqLMRNQXKRHtGt1C41-15" value="real_internet" style="ellipse;whiteSpace=wrap;html=1;" parent="1" vertex="1">
          <mxGeometry x="90" y="650" width="150" height="50" as="geometry" />
        </mxCell>
        <mxCell id="6YXqLMRNQXKRHtGt1C41-16" value="" style="rounded=0;whiteSpace=wrap;html=1;" parent="1" vertex="1">
          <mxGeometry x="370" y="470" width="270" height="10" as="geometry" />
        </mxCell>
        <mxCell id="6YXqLMRNQXKRHtGt1C41-17" value="&lt;div&gt;remote_employee&lt;/div&gt;&lt;div&gt;172.10.10.123&lt;/div&gt;" style="rounded=0;whiteSpace=wrap;html=1;" parent="1" vertex="1">
          <mxGeometry x="370" y="500" width="110" height="30" as="geometry" />
        </mxCell>
        <mxCell id="6YXqLMRNQXKRHtGt1C41-18" value="" style="rounded=0;whiteSpace=wrap;html=1;" parent="1" vertex="1">
          <mxGeometry x="95" y="550" width="430" height="10" as="geometry" />
        </mxCell>
        <mxCell id="6YXqLMRNQXKRHtGt1C41-21" style="edgeStyle=orthogonalEdgeStyle;rounded=0;orthogonalLoop=1;jettySize=auto;html=1;exitX=0.5;exitY=0;exitDx=0;exitDy=0;entryX=0.211;entryY=0.8;entryDx=0;entryDy=0;entryPerimeter=0;" parent="1" source="6YXqLMRNQXKRHtGt1C41-17" target="6YXqLMRNQXKRHtGt1C41-16" edge="1">
          <mxGeometry relative="1" as="geometry" />
        </mxCell>
        <mxCell id="6YXqLMRNQXKRHtGt1C41-23" style="edgeStyle=orthogonalEdgeStyle;rounded=0;orthogonalLoop=1;jettySize=auto;html=1;exitX=0.5;exitY=0;exitDx=0;exitDy=0;entryX=0.174;entryY=0.5;entryDx=0;entryDy=0;entryPerimeter=0;" parent="1" source="6YXqLMRNQXKRHtGt1C41-13" target="6YXqLMRNQXKRHtGt1C41-18" edge="1">
          <mxGeometry relative="1" as="geometry" />
        </mxCell>
        <mxCell id="6YXqLMRNQXKRHtGt1C41-25" value="&lt;div&gt;employee home lan&lt;/div&gt;&lt;div&gt;172.10.0.0/24&lt;/div&gt;&lt;div&gt;&lt;br&gt;&lt;/div&gt;" style="text;html=1;" parent="1" vertex="1">
          <mxGeometry x="660" y="460" width="130" height="40" as="geometry" />
        </mxCell>
        <mxCell id="6YXqLMRNQXKRHtGt1C41-26" value="" style="rounded=0;whiteSpace=wrap;html=1;" parent="1" vertex="1">
          <mxGeometry x="90" y="380" width="550" height="10" as="geometry" />
        </mxCell>
        <mxCell id="6YXqLMRNQXKRHtGt1C41-30" style="edgeStyle=orthogonalEdgeStyle;rounded=0;orthogonalLoop=1;jettySize=auto;html=1;exitX=0.5;exitY=0;exitDx=0;exitDy=0;entryX=0.78;entryY=0.5;entryDx=0;entryDy=0;entryPerimeter=0;" parent="1" source="6YXqLMRNQXKRHtGt1C41-11" target="6YXqLMRNQXKRHtGt1C41-26" edge="1">
          <mxGeometry relative="1" as="geometry" />
        </mxCell>
        <mxCell id="6YXqLMRNQXKRHtGt1C41-31" style="edgeStyle=orthogonalEdgeStyle;rounded=0;orthogonalLoop=1;jettySize=auto;html=1;exitX=0.5;exitY=0;exitDx=0;exitDy=0;entryX=0.109;entryY=1;entryDx=0;entryDy=0;entryPerimeter=0;" parent="1" source="6YXqLMRNQXKRHtGt1C41-8" target="6YXqLMRNQXKRHtGt1C41-26" edge="1">
          <mxGeometry relative="1" as="geometry" />
        </mxCell>
        <mxCell id="6YXqLMRNQXKRHtGt1C41-34" style="edgeStyle=orthogonalEdgeStyle;rounded=0;orthogonalLoop=1;jettySize=auto;html=1;exitX=0.5;exitY=1;exitDx=0;exitDy=0;entryX=0.14;entryY=0.3;entryDx=0;entryDy=0;entryPerimeter=0;" parent="1" source="6YXqLMRNQXKRHtGt1C41-8" target="6YXqLMRNQXKRHtGt1C41-18" edge="1">
          <mxGeometry relative="1" as="geometry">
            <mxPoint x="155" y="540" as="targetPoint" />
          </mxGeometry>
        </mxCell>
        <mxCell id="6YXqLMRNQXKRHtGt1C41-36" style="edgeStyle=orthogonalEdgeStyle;rounded=0;orthogonalLoop=1;jettySize=auto;html=1;exitX=0.5;exitY=1;exitDx=0;exitDy=0;entryX=0.105;entryY=0.8;entryDx=0;entryDy=0;entryPerimeter=0;" parent="1" source="6YXqLMRNQXKRHtGt1C41-3" target="6YXqLMRNQXKRHtGt1C41-26" edge="1">
          <mxGeometry relative="1" as="geometry" />
        </mxCell>
        <mxCell id="6YXqLMRNQXKRHtGt1C41-37" value="" style="rounded=0;whiteSpace=wrap;html=1;" parent="1" vertex="1">
          <mxGeometry x="200" y="280" width="260" height="10" as="geometry" />
        </mxCell>
        <mxCell id="6YXqLMRNQXKRHtGt1C41-38" value="" style="rounded=0;whiteSpace=wrap;html=1;" parent="1" vertex="1">
          <mxGeometry x="200" y="200" width="257.5" height="10" as="geometry" />
        </mxCell>
        <mxCell id="6YXqLMRNQXKRHtGt1C41-39" value="" style="rounded=0;whiteSpace=wrap;html=1;" parent="1" vertex="1">
          <mxGeometry x="200" y="120" width="260" height="10" as="geometry" />
        </mxCell>
        <mxCell id="6YXqLMRNQXKRHtGt1C41-41" value="internal 172.30.1.0/24" style="text;html=1;" parent="1" vertex="1">
          <mxGeometry x="470" y="270" width="180" height="30" as="geometry" />
        </mxCell>
        <mxCell id="6YXqLMRNQXKRHtGt1C41-42" value="dmz 172.30.2.0/24" style="text;html=1;" parent="1" vertex="1">
          <mxGeometry x="470" y="190" width="180" height="30" as="geometry" />
        </mxCell>
        <mxCell id="6YXqLMRNQXKRHtGt1C41-43" style="edgeStyle=orthogonalEdgeStyle;rounded=0;orthogonalLoop=1;jettySize=auto;html=1;exitX=0.5;exitY=0;exitDx=0;exitDy=0;entryX=0.425;entryY=1.2;entryDx=0;entryDy=0;entryPerimeter=0;" parent="1" source="6YXqLMRNQXKRHtGt1C41-9" target="6YXqLMRNQXKRHtGt1C41-26" edge="1">
          <mxGeometry relative="1" as="geometry" />
        </mxCell>
        <mxCell id="6YXqLMRNQXKRHtGt1C41-46" value="client&lt;br&gt;172.30.3.123" style="rounded=0;whiteSpace=wrap;html=1;" parent="1" vertex="1">
          <mxGeometry x="300" y="150" width="100" height="30" as="geometry" />
        </mxCell>
        <mxCell id="6YXqLMRNQXKRHtGt1C41-47" style="edgeStyle=orthogonalEdgeStyle;rounded=0;orthogonalLoop=1;jettySize=auto;html=1;exitX=0.5;exitY=0;exitDx=0;exitDy=0;entryX=0.555;entryY=0.8;entryDx=0;entryDy=0;entryPerimeter=0;" parent="1" source="6YXqLMRNQXKRHtGt1C41-5" target="6YXqLMRNQXKRHtGt1C41-38" edge="1">
          <mxGeometry relative="1" as="geometry" />
        </mxCell>
        <mxCell id="6YXqLMRNQXKRHtGt1C41-48" style="edgeStyle=orthogonalEdgeStyle;rounded=0;orthogonalLoop=1;jettySize=auto;html=1;exitX=0.5;exitY=0;exitDx=0;exitDy=0;entryX=0.581;entryY=1.1;entryDx=0;entryDy=0;entryPerimeter=0;" parent="1" source="6YXqLMRNQXKRHtGt1C41-46" target="6YXqLMRNQXKRHtGt1C41-39" edge="1">
          <mxGeometry relative="1" as="geometry" />
        </mxCell>
        <mxCell id="6YXqLMRNQXKRHtGt1C41-49" style="edgeStyle=orthogonalEdgeStyle;rounded=0;orthogonalLoop=1;jettySize=auto;html=1;exitX=0.5;exitY=0;exitDx=0;exitDy=0;entryX=0.223;entryY=0.9;entryDx=0;entryDy=0;entryPerimeter=0;" parent="1" source="6YXqLMRNQXKRHtGt1C41-4" target="6YXqLMRNQXKRHtGt1C41-37" edge="1">
          <mxGeometry relative="1" as="geometry" />
        </mxCell>
        <mxCell id="6YXqLMRNQXKRHtGt1C41-50" style="edgeStyle=orthogonalEdgeStyle;rounded=0;orthogonalLoop=1;jettySize=auto;html=1;exitX=0.5;exitY=0;exitDx=0;exitDy=0;entryX=0.577;entryY=1.1;entryDx=0;entryDy=0;entryPerimeter=0;" parent="1" source="6YXqLMRNQXKRHtGt1C41-6" target="6YXqLMRNQXKRHtGt1C41-37" edge="1">
          <mxGeometry relative="1" as="geometry" />
        </mxCell>
        <mxCell id="6YXqLMRNQXKRHtGt1C41-56" value="172.30.1.1" style="text;html=1;" parent="1" vertex="1">
          <mxGeometry x="160" y="240" width="60" height="30" as="geometry" />
        </mxCell>
        <mxCell id="6YXqLMRNQXKRHtGt1C41-57" value="172.30.3.1" style="text;html=1;" parent="1" vertex="1">
          <mxGeometry x="135" y="90" width="60" height="30" as="geometry" />
        </mxCell>
        <mxCell id="6YXqLMRNQXKRHtGt1C41-58" value="172.30.2.1" style="text;html=1;" parent="1" vertex="1">
          <mxGeometry x="150" y="160" width="60" height="30" as="geometry" />
        </mxCell>
        <mxCell id="6YXqLMRNQXKRHtGt1C41-59" value="" style="line;strokeWidth=2;" parent="1" edge="1">
          <mxGeometry width="750" height="30" relative="1" as="geometry" />
        </mxCell>
        <mxCell id="6YXqLMRNQXKRHtGt1C41-60" style="edgeStyle=orthogonalEdgeStyle;rounded=0;orthogonalLoop=1;jettySize=auto;html=1;exitX=0.25;exitY=0;exitDx=0;exitDy=0;entryX=0;entryY=0.25;entryDx=0;entryDy=0;" parent="1" source="6YXqLMRNQXKRHtGt1C41-63" target="6YXqLMRNQXKRHtGt1C41-92" edge="1">
          <mxGeometry relative="1" as="geometry">
            <mxPoint x="119" y="100" as="targetPoint" />
          </mxGeometry>
        </mxCell>
        <mxCell id="6YXqLMRNQXKRHtGt1C41-61" style="edgeStyle=orthogonalEdgeStyle;rounded=0;orthogonalLoop=1;jettySize=auto;html=1;exitX=0.5;exitY=0;exitDx=0;exitDy=0;entryX=0;entryY=0.25;entryDx=0;entryDy=0;" parent="1" source="6YXqLMRNQXKRHtGt1C41-63" target="6YXqLMRNQXKRHtGt1C41-91" edge="1">
          <mxGeometry relative="1" as="geometry">
            <mxPoint x="148" y="200" as="targetPoint" />
          </mxGeometry>
        </mxCell>
        <mxCell id="6YXqLMRNQXKRHtGt1C41-62" style="edgeStyle=orthogonalEdgeStyle;rounded=0;orthogonalLoop=1;jettySize=auto;html=1;exitX=0.75;exitY=0;exitDx=0;exitDy=0;entryX=0;entryY=0;entryDx=0;entryDy=0;" parent="1" source="6YXqLMRNQXKRHtGt1C41-63" target="6YXqLMRNQXKRHtGt1C41-90" edge="1">
          <mxGeometry relative="1" as="geometry">
            <mxPoint x="176.25581395348843" y="280" as="targetPoint" />
            <Array as="points">
              <mxPoint x="176" y="290" />
              <mxPoint x="176" y="290" />
              <mxPoint x="176" y="280" />
            </Array>
          </mxGeometry>
        </mxCell>
        <mxCell id="6YXqLMRNQXKRHtGt1C41-63" value="&lt;div&gt;&lt;br&gt;&lt;/div&gt;&lt;div&gt;companyrouter&lt;/div&gt;&lt;div&gt;192.168.62.253&lt;br&gt;&lt;/div&gt;&lt;div&gt;&lt;br&gt;&lt;/div&gt;" style="rounded=0;whiteSpace=wrap;html=1;" parent="1" vertex="1">
          <mxGeometry x="90" y="310" width="115" height="30" as="geometry" />
        </mxCell>
        <mxCell id="6YXqLMRNQXKRHtGt1C41-64" value="dns&lt;br&gt;172.30.1.4" style="rounded=0;whiteSpace=wrap;html=1;" parent="1" vertex="1">
          <mxGeometry x="230" y="320" width="70" height="30" as="geometry" />
        </mxCell>
        <mxCell id="6YXqLMRNQXKRHtGt1C41-65" value="web&lt;br&gt;172.30.2.10" style="rounded=0;whiteSpace=wrap;html=1;" parent="1" vertex="1">
          <mxGeometry x="300" y="230" width="80" height="30" as="geometry" />
        </mxCell>
        <mxCell id="6YXqLMRNQXKRHtGt1C41-66" value="database&lt;br&gt;172.30.1.15" style="rounded=0;whiteSpace=wrap;html=1;" parent="1" vertex="1">
          <mxGeometry x="310" y="320" width="80" height="30" as="geometry" />
        </mxCell>
        <mxCell id="6YXqLMRNQXKRHtGt1C41-67" value="fake_internet&#xa;192.168.62.0/24" style="text;html=1;" parent="1" vertex="1">
          <mxGeometry y="360" width="80" height="30" as="geometry" />
        </mxCell>
        <mxCell id="6YXqLMRNQXKRHtGt1C41-68" value="&lt;div&gt;192.168.62.254&lt;/div&gt;&lt;div&gt;isprouter&lt;/div&gt;&lt;div&gt;10.0.2.15&lt;br&gt;&lt;/div&gt;" style="rounded=0;whiteSpace=wrap;html=1;" parent="1" vertex="1">
          <mxGeometry x="100" y="420" width="110" height="40" as="geometry" />
        </mxCell>
        <mxCell id="6YXqLMRNQXKRHtGt1C41-69" value="your_laptop&#xa;DHCP" style="rounded=0;whiteSpace=wrap;html=1;" parent="1" vertex="1">
          <mxGeometry x="275" y="420" width="100" height="30" as="geometry" />
        </mxCell>
        <mxCell id="6YXqLMRNQXKRHtGt1C41-70" value="clients 172.30.3.0/24" style="text;html=1;" parent="1" vertex="1">
          <mxGeometry x="470" y="110" width="180" height="30" as="geometry" />
        </mxCell>
        <mxCell id="6YXqLMRNQXKRHtGt1C41-71" style="edgeStyle=orthogonalEdgeStyle;rounded=0;orthogonalLoop=1;jettySize=auto;html=1;exitX=0.5;exitY=1;exitDx=0;exitDy=0;entryX=0.5;entryY=0;entryDx=0;entryDy=0;" parent="1" source="6YXqLMRNQXKRHtGt1C41-72" target="6YXqLMRNQXKRHtGt1C41-79" edge="1">
          <mxGeometry relative="1" as="geometry" />
        </mxCell>
        <mxCell id="6YXqLMRNQXKRHtGt1C41-72" value="&lt;div&gt;192.168.62.42&lt;/div&gt;&lt;div&gt;homerouter&lt;/div&gt;&lt;div&gt;172.10.10.254&lt;/div&gt;" style="rounded=0;whiteSpace=wrap;html=1;" parent="1" vertex="1">
          <mxGeometry x="460" y="410" width="130" height="40" as="geometry" />
        </mxCell>
        <mxCell id="6YXqLMRNQXKRHtGt1C41-73" value="virtualbox_nat&#xa;10.0.2.0/24" style="text;html=1;" parent="1" vertex="1">
          <mxGeometry x="10" y="540" width="80" height="30" as="geometry" />
        </mxCell>
        <mxCell id="6YXqLMRNQXKRHtGt1C41-74" value="virtualbox_nat_gateway&#xa;10.0.2.2" style="rounded=0;whiteSpace=wrap;html=1;" parent="1" vertex="1">
          <mxGeometry x="90" y="580" width="150" height="30" as="geometry" />
        </mxCell>
        <mxCell id="6YXqLMRNQXKRHtGt1C41-75" style="edgeStyle=orthogonalEdgeStyle;rounded=0;orthogonalLoop=1;jettySize=auto;html=1;exitX=0.5;exitY=0;exitDx=0;exitDy=0;entryX=0.75;entryY=1;entryDx=0;entryDy=0;" parent="1" source="6YXqLMRNQXKRHtGt1C41-76" target="6YXqLMRNQXKRHtGt1C41-81" edge="1">
          <mxGeometry relative="1" as="geometry" />
        </mxCell>
        <mxCell id="6YXqLMRNQXKRHtGt1C41-76" value="virtualbox_nat_dns&#xa;10.0.2.3" style="rounded=0;whiteSpace=wrap;html=1;" parent="1" vertex="1">
          <mxGeometry x="339" y="585" width="150" height="30" as="geometry" />
        </mxCell>
        <mxCell id="6YXqLMRNQXKRHtGt1C41-77" style="edgeStyle=orthogonalEdgeStyle;rounded=0;orthogonalLoop=1;jettySize=auto;html=1;exitX=0.5;exitY=0;exitDx=0;exitDy=0;entryX=0.5;entryY=1;entryDx=0;entryDy=0;" parent="1" source="6YXqLMRNQXKRHtGt1C41-78" target="6YXqLMRNQXKRHtGt1C41-74" edge="1">
          <mxGeometry relative="1" as="geometry" />
        </mxCell>
        <mxCell id="6YXqLMRNQXKRHtGt1C41-78" value="real_internet" style="ellipse;whiteSpace=wrap;html=1;" parent="1" vertex="1">
          <mxGeometry x="90" y="650" width="150" height="50" as="geometry" />
        </mxCell>
        <mxCell id="6YXqLMRNQXKRHtGt1C41-79" value="" style="rounded=0;whiteSpace=wrap;html=1;" parent="1" vertex="1">
          <mxGeometry x="370" y="470" width="270" height="10" as="geometry" />
        </mxCell>
        <mxCell id="6YXqLMRNQXKRHtGt1C41-80" value="&lt;div&gt;remote_employee&lt;/div&gt;&lt;div&gt;172.10.10.123&lt;/div&gt;" style="rounded=0;whiteSpace=wrap;html=1;" parent="1" vertex="1">
          <mxGeometry x="370" y="500" width="110" height="30" as="geometry" />
        </mxCell>
        <mxCell id="6YXqLMRNQXKRHtGt1C41-81" value="" style="rounded=0;whiteSpace=wrap;html=1;" parent="1" vertex="1">
          <mxGeometry x="95" y="550" width="430" height="10" as="geometry" />
        </mxCell>
        <mxCell id="6YXqLMRNQXKRHtGt1C41-82" style="edgeStyle=orthogonalEdgeStyle;rounded=0;orthogonalLoop=1;jettySize=auto;html=1;exitX=0.5;exitY=0;exitDx=0;exitDy=0;entryX=0.211;entryY=0.8;entryDx=0;entryDy=0;entryPerimeter=0;" parent="1" source="6YXqLMRNQXKRHtGt1C41-80" target="6YXqLMRNQXKRHtGt1C41-79" edge="1">
          <mxGeometry relative="1" as="geometry" />
        </mxCell>
        <mxCell id="6YXqLMRNQXKRHtGt1C41-83" style="edgeStyle=orthogonalEdgeStyle;rounded=0;orthogonalLoop=1;jettySize=auto;html=1;exitX=0.5;exitY=0;exitDx=0;exitDy=0;entryX=0.174;entryY=0.5;entryDx=0;entryDy=0;entryPerimeter=0;" parent="1" source="6YXqLMRNQXKRHtGt1C41-74" target="6YXqLMRNQXKRHtGt1C41-81" edge="1">
          <mxGeometry relative="1" as="geometry" />
        </mxCell>
        <mxCell id="6YXqLMRNQXKRHtGt1C41-84" value="&lt;div&gt;employee home lan&lt;/div&gt;&lt;div&gt;172.10.0.0/24&lt;/div&gt;&lt;div&gt;&lt;br&gt;&lt;/div&gt;" style="text;html=1;" parent="1" vertex="1">
          <mxGeometry x="660" y="460" width="130" height="40" as="geometry" />
        </mxCell>
        <mxCell id="6YXqLMRNQXKRHtGt1C41-85" value="" style="rounded=0;whiteSpace=wrap;html=1;" parent="1" vertex="1">
          <mxGeometry x="90" y="380" width="550" height="10" as="geometry" />
        </mxCell>
        <mxCell id="6YXqLMRNQXKRHtGt1C41-86" style="edgeStyle=orthogonalEdgeStyle;rounded=0;orthogonalLoop=1;jettySize=auto;html=1;exitX=0.5;exitY=0;exitDx=0;exitDy=0;entryX=0.78;entryY=0.5;entryDx=0;entryDy=0;entryPerimeter=0;" parent="1" source="6YXqLMRNQXKRHtGt1C41-72" target="6YXqLMRNQXKRHtGt1C41-85" edge="1">
          <mxGeometry relative="1" as="geometry" />
        </mxCell>
        <mxCell id="6YXqLMRNQXKRHtGt1C41-87" style="edgeStyle=orthogonalEdgeStyle;rounded=0;orthogonalLoop=1;jettySize=auto;html=1;exitX=0.5;exitY=0;exitDx=0;exitDy=0;entryX=0.109;entryY=1;entryDx=0;entryDy=0;entryPerimeter=0;" parent="1" source="6YXqLMRNQXKRHtGt1C41-68" target="6YXqLMRNQXKRHtGt1C41-85" edge="1">
          <mxGeometry relative="1" as="geometry" />
        </mxCell>
        <mxCell id="6YXqLMRNQXKRHtGt1C41-88" style="edgeStyle=orthogonalEdgeStyle;rounded=0;orthogonalLoop=1;jettySize=auto;html=1;exitX=0.5;exitY=1;exitDx=0;exitDy=0;entryX=0.14;entryY=0.3;entryDx=0;entryDy=0;entryPerimeter=0;" parent="1" source="6YXqLMRNQXKRHtGt1C41-68" target="6YXqLMRNQXKRHtGt1C41-81" edge="1">
          <mxGeometry relative="1" as="geometry">
            <mxPoint x="155" y="540" as="targetPoint" />
          </mxGeometry>
        </mxCell>
        <mxCell id="6YXqLMRNQXKRHtGt1C41-89" style="edgeStyle=orthogonalEdgeStyle;rounded=0;orthogonalLoop=1;jettySize=auto;html=1;exitX=0.5;exitY=1;exitDx=0;exitDy=0;entryX=0.105;entryY=0.8;entryDx=0;entryDy=0;entryPerimeter=0;" parent="1" source="6YXqLMRNQXKRHtGt1C41-63" target="6YXqLMRNQXKRHtGt1C41-85" edge="1">
          <mxGeometry relative="1" as="geometry" />
        </mxCell>
        <mxCell id="6YXqLMRNQXKRHtGt1C41-90" value="" style="rounded=0;whiteSpace=wrap;html=1;" parent="1" vertex="1">
          <mxGeometry x="200" y="280" width="260" height="10" as="geometry" />
        </mxCell>
        <mxCell id="6YXqLMRNQXKRHtGt1C41-91" value="" style="rounded=0;whiteSpace=wrap;html=1;" parent="1" vertex="1">
          <mxGeometry x="200" y="200" width="257.5" height="10" as="geometry" />
        </mxCell>
        <mxCell id="6YXqLMRNQXKRHtGt1C41-92" value="" style="rounded=0;whiteSpace=wrap;html=1;" parent="1" vertex="1">
          <mxGeometry x="200" y="120" width="260" height="10" as="geometry" />
        </mxCell>
        <mxCell id="6YXqLMRNQXKRHtGt1C41-93" value="internal 172.30.1.0/24" style="text;html=1;" parent="1" vertex="1">
          <mxGeometry x="470" y="270" width="180" height="30" as="geometry" />
        </mxCell>
        <mxCell id="6YXqLMRNQXKRHtGt1C41-94" value="dmz 172.30.2.0/24" style="text;html=1;" parent="1" vertex="1">
          <mxGeometry x="470" y="190" width="180" height="30" as="geometry" />
        </mxCell>
        <mxCell id="6YXqLMRNQXKRHtGt1C41-95" style="edgeStyle=orthogonalEdgeStyle;rounded=0;orthogonalLoop=1;jettySize=auto;html=1;exitX=0.5;exitY=0;exitDx=0;exitDy=0;entryX=0.425;entryY=1.2;entryDx=0;entryDy=0;entryPerimeter=0;" parent="1" source="6YXqLMRNQXKRHtGt1C41-69" target="6YXqLMRNQXKRHtGt1C41-85" edge="1">
          <mxGeometry relative="1" as="geometry" />
        </mxCell>
        <mxCell id="6YXqLMRNQXKRHtGt1C41-96" value="employee&lt;br&gt;172.30.3.123" style="rounded=0;whiteSpace=wrap;html=1;" parent="1" vertex="1">
          <mxGeometry x="300" y="150" width="100" height="30" as="geometry" />
        </mxCell>
        <mxCell id="6YXqLMRNQXKRHtGt1C41-97" style="edgeStyle=orthogonalEdgeStyle;rounded=0;orthogonalLoop=1;jettySize=auto;html=1;exitX=0.5;exitY=0;exitDx=0;exitDy=0;entryX=0.555;entryY=0.8;entryDx=0;entryDy=0;entryPerimeter=0;" parent="1" source="6YXqLMRNQXKRHtGt1C41-65" target="6YXqLMRNQXKRHtGt1C41-91" edge="1">
          <mxGeometry relative="1" as="geometry" />
        </mxCell>
        <mxCell id="6YXqLMRNQXKRHtGt1C41-98" style="edgeStyle=orthogonalEdgeStyle;rounded=0;orthogonalLoop=1;jettySize=auto;html=1;exitX=0.5;exitY=0;exitDx=0;exitDy=0;entryX=0.581;entryY=1.1;entryDx=0;entryDy=0;entryPerimeter=0;" parent="1" source="6YXqLMRNQXKRHtGt1C41-96" target="6YXqLMRNQXKRHtGt1C41-92" edge="1">
          <mxGeometry relative="1" as="geometry" />
        </mxCell>
        <mxCell id="6YXqLMRNQXKRHtGt1C41-99" style="edgeStyle=orthogonalEdgeStyle;rounded=0;orthogonalLoop=1;jettySize=auto;html=1;exitX=0.5;exitY=0;exitDx=0;exitDy=0;entryX=0.223;entryY=0.9;entryDx=0;entryDy=0;entryPerimeter=0;" parent="1" source="6YXqLMRNQXKRHtGt1C41-64" target="6YXqLMRNQXKRHtGt1C41-90" edge="1">
          <mxGeometry relative="1" as="geometry" />
        </mxCell>
        <mxCell id="6YXqLMRNQXKRHtGt1C41-100" style="edgeStyle=orthogonalEdgeStyle;rounded=0;orthogonalLoop=1;jettySize=auto;html=1;exitX=0.5;exitY=0;exitDx=0;exitDy=0;entryX=0.577;entryY=1.1;entryDx=0;entryDy=0;entryPerimeter=0;" parent="1" source="6YXqLMRNQXKRHtGt1C41-66" target="6YXqLMRNQXKRHtGt1C41-90" edge="1">
          <mxGeometry relative="1" as="geometry" />
        </mxCell>
        <mxCell id="6YXqLMRNQXKRHtGt1C41-101" value="172.30.1.1" style="text;html=1;" parent="1" vertex="1">
          <mxGeometry x="160" y="240" width="60" height="30" as="geometry" />
        </mxCell>
        <mxCell id="6YXqLMRNQXKRHtGt1C41-102" value="172.30.3.1" style="text;html=1;" parent="1" vertex="1">
          <mxGeometry x="135" y="90" width="60" height="30" as="geometry" />
        </mxCell>
        <mxCell id="m1KTKkcOnGDs_fQUaPyq-3" style="edgeStyle=orthogonalEdgeStyle;rounded=0;orthogonalLoop=1;jettySize=auto;html=1;entryX=1;entryY=0.25;entryDx=0;entryDy=0;" parent="1" source="m1KTKkcOnGDs_fQUaPyq-2" target="6YXqLMRNQXKRHtGt1C41-85" edge="1">
          <mxGeometry relative="1" as="geometry" />
        </mxCell>
        <mxCell id="m1KTKkcOnGDs_fQUaPyq-2" value="&lt;div&gt;192.168.62.20&lt;/div&gt;&lt;div&gt;kali linux&lt;br&gt;&lt;/div&gt;&lt;div&gt;&lt;br&gt;&lt;/div&gt;" style="rounded=0;whiteSpace=wrap;html=1;" parent="1" vertex="1">
          <mxGeometry x="600" y="410" width="130" height="40" as="geometry" />
        </mxCell>
        <mxCell id="AicizEEDPXIeIUt0L2ht-1" value="siem&lt;br&gt;&lt;div&gt;172.30.2.11&lt;/div&gt;" style="rounded=0;whiteSpace=wrap;html=1;" vertex="1" parent="1">
          <mxGeometry x="385" y="230" width="80" height="30" as="geometry" />
        </mxCell>
        <mxCell id="AicizEEDPXIeIUt0L2ht-3" style="edgeStyle=orthogonalEdgeStyle;rounded=0;orthogonalLoop=1;jettySize=auto;html=1;entryX=0.878;entryY=0.672;entryDx=0;entryDy=0;entryPerimeter=0;" edge="1" parent="1" source="AicizEEDPXIeIUt0L2ht-1" target="6YXqLMRNQXKRHtGt1C41-91">
          <mxGeometry relative="1" as="geometry" />
        </mxCell>
      </root>
    </mxGraphModel>
  </diagram>
</mxfile>
